<svg width="98" height="61" viewBox="0 0 98 61" fill="none" xmlns="http://www.w3.org/2000/svg">
<path d="M4.77688 25C3.95021 25 3.27021 24.76 2.73688 24.28C2.23021 23.8 2.03021 23.08 2.13688 22.12C2.16354 21.7733 2.24354 21.4133 2.37688 21.04C2.53688 20.64 2.71021 20.2533 2.89688 19.88C3.05688 19.5067 3.21688 19.32 3.37688 19.32C3.51021 19.32 3.52354 19.4267 3.41688 19.64C3.07021 20.36 2.89688 21 2.89688 21.56C2.89688 22.1467 3.09688 22.5867 3.49688 22.88C3.92354 23.1733 4.47021 23.32 5.13688 23.32C6.44354 23.32 7.88354 22.9067 9.45688 22.08C11.0302 21.2267 12.6569 20.1467 14.3369 18.84C16.0169 17.5067 17.6302 16.12 19.1769 14.68C18.1369 14.6267 17.1635 14.5733 16.2569 14.52C15.3502 14.4667 14.5502 14.44 13.8569 14.44C13.2702 14.44 12.5635 14.4933 11.7369 14.6C10.9102 14.7067 10.2702 14.9867 9.81688 15.44C9.63021 15.6267 9.45688 15.9067 9.29688 16.28C9.16354 16.6267 9.09688 16.9867 9.09688 17.36C9.09688 17.4667 9.09688 17.5733 9.09688 17.68C9.12354 17.76 9.15021 17.8533 9.17688 17.96C9.07021 17.9067 8.87021 17.8667 8.57688 17.84C8.31021 17.7867 8.13688 17.6133 8.05688 17.32C8.03021 17.24 8.01688 17.1067 8.01688 16.92C8.01688 16.4933 8.17688 16.1467 8.49688 15.88C8.81688 15.5867 9.20354 15.3333 9.65688 15.12C10.1102 14.9067 10.5235 14.72 10.8969 14.56C11.7769 14.1867 12.6835 13.88 13.6169 13.64C14.5502 13.4 15.4969 13.28 16.4569 13.28C17.5502 13.28 18.9102 13.32 20.5369 13.4C21.7902 12.1733 22.9502 11.0133 24.0169 9.92C25.0835 8.82667 25.9502 7.92 26.6169 7.2C27.5502 6.21333 28.5369 5.37333 29.5769 4.68C30.6435 3.96 31.7235 3.45333 32.8169 3.16H30.6169C29.6835 3.16 28.6702 3.2 27.5769 3.28C26.4835 3.36 25.4569 3.53333 24.4969 3.8C23.5369 4.06667 22.7369 4.46667 22.0969 5C21.6969 5.34667 21.3902 5.74667 21.1769 6.2C20.9902 6.62667 20.8969 7.02667 20.8969 7.4C20.8969 7.90667 21.0435 8.25333 21.3369 8.44C21.3635 8.44 21.3769 8.45333 21.3769 8.48C21.3769 8.56 21.2835 8.65333 21.0969 8.76C20.9102 8.84 20.7769 8.85333 20.6969 8.8C20.4302 8.61333 20.1902 8.24 19.9769 7.68C19.7902 7.09333 19.7235 6.62667 19.7769 6.28C19.9102 5.45333 20.2702 4.78667 20.8569 4.28C21.4702 3.74667 22.2169 3.33333 23.0969 3.04C24.0035 2.74667 24.9502 2.54667 25.9369 2.44C26.9502 2.33333 27.9102 2.26667 28.8169 2.24C29.7502 2.21333 30.5369 2.2 31.1769 2.2H35.5369C35.5902 2.2 35.6035 2.21333 35.5769 2.24C36.2435 1.94667 36.9369 1.65333 37.6569 1.36C38.4035 1.06667 39.0435 0.919999 39.5769 0.919999C39.7102 0.919999 39.8435 0.959999 39.9769 1.04C40.1369 1.12 40.2169 1.2 40.2169 1.28C40.2169 1.41333 39.9502 1.48 39.4169 1.48C39.1502 1.48 38.8702 1.53333 38.5769 1.64C38.3102 1.72 37.9502 2 37.4969 2.48C37.1235 2.85333 36.6569 3.45333 36.0969 4.28C35.5369 5.10667 34.9235 6.08 34.2569 7.2C33.5902 8.29333 32.9235 9.46667 32.2569 10.72C31.5902 11.9467 30.9502 13.16 30.3369 14.36C29.7235 15.56 29.1902 16.6667 28.7369 17.68C28.6835 17.84 28.5369 18.2133 28.2969 18.8C28.0569 19.36 27.8302 19.9867 27.6169 20.68C27.4035 21.3467 27.2969 21.9467 27.2969 22.48C27.2969 23.2 27.5502 23.56 28.0569 23.56C28.2969 23.56 28.5369 23.5067 28.7769 23.4C29.1235 23.2667 29.4835 23.0667 29.8569 22.8C30.2302 22.5333 30.5902 22.2267 30.9369 21.88C31.6302 21.2133 32.2169 20.5733 32.6969 19.96C33.1769 19.32 33.4702 18.9333 33.5769 18.8C33.6569 18.6667 33.7502 18.6 33.8569 18.6C33.9635 18.6 34.0169 18.6667 34.0169 18.8C34.0169 18.88 33.9769 18.9867 33.8969 19.12C33.7102 19.3867 33.3635 19.8533 32.8569 20.52C32.3502 21.16 31.7502 21.8133 31.0569 22.48C30.3902 23.1467 29.6702 23.6533 28.8969 24C28.6569 24.1067 28.4035 24.1867 28.1369 24.24C27.8702 24.32 27.6035 24.36 27.3369 24.36C26.8035 24.36 26.3102 24.1733 25.8569 23.8C25.4302 23.4267 25.2169 22.8133 25.2169 21.96C25.2169 21.1867 25.3635 20.36 25.6569 19.48C25.9769 18.5733 26.2702 17.84 26.5369 17.28C27.0702 16.1333 27.6969 14.8533 28.4169 13.44C29.1635 12.0267 29.9235 10.6133 30.6969 9.2C31.4969 7.78667 32.2302 6.50667 32.8969 5.36C33.5635 4.21333 34.1102 3.36 34.5369 2.8C34.1102 2.8 33.5369 2.97333 32.8169 3.32C32.0969 3.64 31.3235 4.08 30.4969 4.64C29.6969 5.17333 28.9502 5.8 28.2569 6.52C27.4302 7.37333 26.4702 8.41333 25.3769 9.64C24.3102 10.8667 23.1502 12.1467 21.8969 13.48C22.5102 13.5067 23.1235 13.5333 23.7369 13.56C24.3502 13.56 24.9635 13.56 25.5769 13.56C26.0035 13.56 26.4702 13.52 26.9769 13.44C27.5102 13.3333 28.0035 13.1733 28.4569 12.96C28.4569 12.96 28.3769 13.1067 28.2169 13.4C28.0835 13.6667 27.8435 13.9467 27.4969 14.24C27.1769 14.5067 26.7369 14.6667 26.1769 14.72C25.6702 14.7467 25.1635 14.7733 24.6569 14.8C24.1502 14.8 23.6435 14.8 23.1369 14.8C22.7102 14.8 22.2835 14.8 21.8569 14.8C21.4569 14.8 21.0569 14.7867 20.6569 14.76C19.4302 16.04 18.1502 17.2933 16.8169 18.52C15.4835 19.72 14.1369 20.8133 12.7769 21.8C11.4169 22.7867 10.0569 23.56 8.69688 24.12C7.36354 24.7067 6.05688 25 4.77688 25ZM30.84 38C29.8267 38 28.8533 37.76 27.92 37.28C26.96 36.8267 26.2533 36.12 25.8 35.16C25.64 34.8133 25.5333 34.44 25.48 34.04C25.4267 33.6667 25.4 33.2933 25.4 32.92V32.48C25.4 32.2667 25.4267 32.0667 25.48 31.88C25.5333 31.72 25.6667 31.64 25.88 31.64C25.9333 31.64 25.96 31.6667 25.96 31.72C25.96 31.88 25.9467 32.04 25.92 32.2C25.8933 32.36 25.88 32.5333 25.88 32.72C25.88 33.9467 26.28 34.88 27.08 35.52C27.8533 36.16 28.8267 36.48 30 36.48C30.48 36.48 30.9733 36.4267 31.48 36.32C31.9867 36.2133 32.4667 36.0667 32.92 35.88C34.6 35.16 36.0533 34.1333 37.28 32.8C38.5333 31.4933 39.6267 30.0133 40.56 28.36C41.4933 26.7067 42.3333 25.0267 43.08 23.32C43.5067 22.3067 43.88 21.32 44.2 20.36C44.5467 19.4 44.8533 18.5333 45.12 17.76C44.8533 18.1333 44.5067 18.5867 44.08 19.12C43.6533 19.6533 43.2267 20.1733 42.8 20.68C42.3733 21.16 42 21.5467 41.68 21.84C41.0133 22.48 40.2933 23.0267 39.52 23.48C38.7733 23.9067 38 24.12 37.2 24.12C36.9333 24.12 36.7067 24.0667 36.52 23.96C36.3333 23.8533 36.24 23.6533 36.24 23.36C36.24 22.9867 36.3333 22.5467 36.52 22.04C36.7333 21.5333 36.96 21.0267 37.2 20.52C37.44 20.0133 37.64 19.6 37.8 19.28C38.12 18.6667 38.4267 18.0533 38.72 17.44C39.0133 16.8267 39.2667 16.3067 39.48 15.88C39.6933 15.48 39.8 15.2133 39.8 15.08C39.8 14.8667 39.64 14.8667 39.32 15.08C39.0267 15.2933 38.7467 15.5067 38.48 15.72C37.8933 16.28 37.28 16.9467 36.64 17.72C36 18.4667 35.5067 19.0667 35.16 19.52C35.08 19.6267 35.0133 19.68 34.96 19.68C34.9067 19.68 34.88 19.6133 34.88 19.48C34.88 19.2667 34.9467 19.0667 35.08 18.88C35.4533 18.3467 35.8933 17.76 36.4 17.12C36.9067 16.48 37.4267 15.8667 37.96 15.28C38.4667 14.7467 38.9867 14.2267 39.52 13.72C40.0533 13.2133 40.7333 12.96 41.56 12.96C42.12 12.96 42.4 13.1733 42.4 13.6C42.4 13.9733 42.24 14.4 41.92 14.88C41.7333 15.1733 41.44 15.6667 41.04 16.36C40.64 17.0533 40.2267 17.8133 39.8 18.64C39.4 19.44 39.0533 20.1867 38.76 20.88C38.4667 21.5733 38.32 22.08 38.32 22.4C38.32 22.7733 38.5067 22.96 38.88 22.96C39.1733 22.96 39.5333 22.8133 39.96 22.52C40.3867 22.2 40.8267 21.8267 41.28 21.4C42.0533 20.6533 42.76 19.8267 43.4 18.92C44.0667 18.0133 44.64 17.1467 45.12 16.32C45.2 16.1867 45.3333 15.9467 45.52 15.6C45.7333 15.2533 45.9467 14.92 46.16 14.6C46.4 14.28 46.5867 14.0933 46.72 14.04C46.8533 13.9867 47.12 13.84 47.52 13.6C47.92 13.36 48.32 13.2 48.72 13.12C49.0933 13.04 49.3733 13 49.56 13C49.8533 13 50 13.08 50 13.24C50 13.4533 49.88 13.56 49.64 13.56C49.3467 13.56 49.08 13.64 48.84 13.8C48.6 13.9333 48.4133 14.1067 48.28 14.32C48.04 14.6667 47.6933 15.2933 47.24 16.2C46.8133 17.1067 46.3333 18.16 45.8 19.36C45.2933 20.5333 44.7867 21.7333 44.28 22.96C43.7733 24.16 43.3067 25.2667 42.88 26.28C42.24 27.8 41.5067 29.28 40.68 30.72C39.8533 32.1867 38.88 33.4933 37.76 34.64C36.6667 35.8133 35.36 36.7333 33.84 37.4C32.9333 37.8 31.9333 38 30.84 38ZM50.55 24.6C50.4433 24.6 50.4433 24.48 50.55 24.24C50.6833 24 50.8033 23.7333 50.91 23.44C51.0433 23.1467 51.1767 22.8267 51.31 22.48C51.5767 21.84 51.87 21.12 52.19 20.32C52.51 19.52 52.8167 18.7467 53.11 18C53.4033 17.2267 53.6567 16.5733 53.87 16.04C54.11 15.48 54.27 15.12 54.35 14.96C53.9767 15.36 53.5233 15.8667 52.99 16.48C52.4833 17.0667 52.0033 17.64 51.55 18.2C51.0967 18.76 50.75 19.2 50.51 19.52C50.43 19.6267 50.3633 19.68 50.31 19.68C50.2567 19.68 50.23 19.6133 50.23 19.48C50.23 19.2667 50.2967 19.0667 50.43 18.88C50.9367 18.24 51.4967 17.52 52.11 16.72C52.75 15.92 53.3233 15.1867 53.83 14.52C54.3367 13.8267 54.6567 13.3733 54.79 13.16C55.0833 13.1067 55.51 13.0267 56.07 12.92C56.6567 12.8133 57.0567 12.6667 57.27 12.48C57.35 12.4 57.43 12.36 57.51 12.36C57.5633 12.36 57.59 12.4133 57.59 12.52C57.6167 12.6 57.59 12.6933 57.51 12.8C57.35 12.9867 57.07 13.4267 56.67 14.12C56.2967 14.7867 55.8833 15.5333 55.43 16.36C55.0033 17.1867 54.6033 17.9333 54.23 18.6C54.6567 18.0933 55.07 17.6133 55.47 17.16C55.8967 16.7067 56.19 16.3867 56.35 16.2C56.67 15.88 57.11 15.48 57.67 15C58.23 14.52 58.8167 14.08 59.43 13.68C60.0433 13.28 60.5767 13.0533 61.03 13C61.1367 12.9733 61.23 12.96 61.31 12.96C61.39 12.96 61.47 12.96 61.55 12.96C62.0567 12.96 62.31 13.1467 62.31 13.52C62.31 13.68 62.27 13.8667 62.19 14.08C62.11 14.2933 62.0033 14.5067 61.87 14.72C61.71 15.04 61.4433 15.5467 61.07 16.24C60.6967 16.9067 60.3633 17.52 60.07 18.08L61.95 16.2C62.27 15.88 62.71 15.48 63.27 15C63.83 14.52 64.4167 14.08 65.03 13.68C65.6433 13.28 66.1767 13.0533 66.63 13C66.7367 12.9733 66.83 12.96 66.91 12.96C67.0167 12.96 67.0967 12.96 67.15 12.96C67.7367 12.96 68.03 13.1733 68.03 13.6C68.03 13.92 67.8567 14.3467 67.51 14.88C67.3233 15.1733 67.03 15.6667 66.63 16.36C66.23 17.0533 65.8167 17.8133 65.39 18.64C64.99 19.44 64.6433 20.1867 64.35 20.88C64.0567 21.5733 63.91 22.08 63.91 22.4C63.91 22.7733 64.0967 22.96 64.47 22.96C64.8167 22.96 65.2567 22.76 65.79 22.36C66.35 21.9333 66.91 21.4267 67.47 20.84C68.0567 20.2533 68.5633 19.6933 68.99 19.16C69.1767 18.9467 69.35 18.7333 69.51 18.52C69.6967 18.28 69.8033 18.1467 69.83 18.12C69.8833 18.1733 69.91 18.2667 69.91 18.4C69.91 18.5867 69.8433 18.7733 69.71 18.96C69.6033 19.12 69.4967 19.2667 69.39 19.4C68.8833 20.0667 68.2967 20.76 67.63 21.48C66.99 22.2 66.2833 22.8133 65.51 23.32C64.7367 23.8 63.91 24.08 63.03 24.16C62.7633 24.1867 62.4967 24.1333 62.23 24C61.9633 23.8667 61.83 23.6533 61.83 23.36C61.83 22.9867 61.9233 22.5467 62.11 22.04C62.3233 21.5333 62.55 21.0267 62.79 20.52C63.0567 20.0133 63.2567 19.6 63.39 19.28C63.87 18.3467 64.31 17.4667 64.71 16.64C65.11 15.8133 65.39 15.2267 65.55 14.88C65.63 14.72 65.67 14.5867 65.67 14.48C65.67 14.2933 65.5233 14.28 65.23 14.44C64.9367 14.6 64.5767 14.84 64.15 15.16C63.75 15.48 63.3767 15.8 63.03 16.12C62.6833 16.4133 62.4567 16.6133 62.35 16.72C61.8967 17.1733 61.35 17.7867 60.71 18.56C60.0967 19.3333 59.5233 20.1467 58.99 21C58.4567 21.8267 58.0833 22.6 57.87 23.32C57.6033 23.56 57.35 23.68 57.11 23.68C56.9233 23.68 56.7633 23.6133 56.63 23.48C56.5233 23.3467 56.47 23.1867 56.47 23C56.47 22.4667 56.63 21.84 56.95 21.12C57.2967 20.3733 57.5767 19.76 57.79 19.28C58.27 18.3467 58.71 17.4667 59.11 16.64C59.51 15.8133 59.79 15.2267 59.95 14.88C60.03 14.72 60.07 14.5867 60.07 14.48C60.07 14.2933 59.9233 14.28 59.63 14.44C59.3367 14.6 58.9767 14.84 58.55 15.16C58.15 15.48 57.7767 15.8 57.43 16.12C57.0833 16.4133 56.8567 16.6133 56.75 16.72C56.11 17.3867 55.51 18.0667 54.95 18.76C54.4167 19.4533 53.9633 20.2 53.59 21C53.3767 21.48 53.15 22.0133 52.91 22.6C52.67 23.1867 52.47 23.68 52.31 24.08C51.9633 24.1067 51.6167 24.2 51.27 24.36C50.9233 24.52 50.6833 24.6 50.55 24.6ZM72.9791 24.32C71.8857 24.32 71.1257 24.1067 70.6991 23.68C70.2724 23.2533 70.0591 22.7333 70.0591 22.12C70.0591 21.3467 70.2591 20.52 70.6591 19.64C71.0857 18.76 71.4857 18.0133 71.8591 17.4C72.2857 16.76 72.8591 16.0933 73.5791 15.4C74.2991 14.7067 75.0857 14.12 75.9391 13.64C76.7924 13.16 77.6191 12.92 78.4191 12.92C79.1124 12.92 79.5924 13.0933 79.8591 13.44C80.1257 13.76 80.2591 14.1467 80.2591 14.6C80.2591 15.4267 80.0057 16.1067 79.4991 16.64C79.0191 17.1733 78.4191 17.6133 77.6991 17.96C76.9791 18.28 76.2857 18.5467 75.6191 18.76C75.2191 18.8667 74.7524 18.9733 74.2191 19.08C73.6857 19.1867 73.1791 19.24 72.6991 19.24C72.5124 19.72 72.3657 20.1867 72.2591 20.64C72.1524 21.0933 72.0991 21.5067 72.0991 21.88C72.0991 22.3333 72.2057 22.7067 72.4191 23C72.6591 23.2933 73.0457 23.44 73.5791 23.44C73.7924 23.44 74.0457 23.4133 74.3391 23.36C74.6324 23.3067 74.9524 23.2267 75.2991 23.12C76.0991 22.8533 76.8857 22.4267 77.6591 21.84C78.4324 21.2533 79.1391 20.6267 79.7791 19.96C80.4457 19.2667 80.9524 18.6933 81.2991 18.24C81.3791 18.32 81.4191 18.4133 81.4191 18.52C81.4191 18.6533 81.3257 18.8667 81.1391 19.16C80.6057 19.9067 79.9124 20.68 79.0591 21.48C78.2057 22.28 77.2591 22.96 76.2191 23.52C75.1791 24.0533 74.0991 24.32 72.9791 24.32ZM73.0191 18.44C73.3657 18.4667 73.7524 18.4667 74.1791 18.44C74.6324 18.3867 75.0724 18.2933 75.4991 18.16C76.5924 17.84 77.3791 17.3333 77.8591 16.64C78.3657 15.92 78.6191 15.28 78.6191 14.72C78.6191 14.4 78.5524 14.1333 78.4191 13.92C78.2857 13.7067 78.0724 13.6 77.7791 13.6C77.0057 13.6 76.3124 13.8933 75.6991 14.48C75.0857 15.04 74.5524 15.6933 74.0991 16.44C73.6457 17.1867 73.2857 17.8533 73.0191 18.44ZM82.5 24.6C82.3933 24.6 82.3933 24.48 82.5 24.24C82.6333 24 82.7533 23.7333 82.86 23.44C82.9933 23.1467 83.1267 22.8267 83.26 22.48C83.5267 21.84 83.82 21.12 84.14 20.32C84.46 19.52 84.7667 18.7467 85.06 18C85.3533 17.2267 85.6067 16.5733 85.82 16.04C86.06 15.48 86.22 15.12 86.3 14.96C85.9267 15.36 85.4733 15.8667 84.94 16.48C84.4333 17.0667 83.9533 17.64 83.5 18.2C83.0467 18.76 82.7 19.2 82.46 19.52C82.38 19.6267 82.3133 19.68 82.26 19.68C82.2067 19.68 82.18 19.6133 82.18 19.48C82.18 19.2667 82.2467 19.0667 82.38 18.88C82.8867 18.24 83.4467 17.52 84.06 16.72C84.7 15.92 85.2733 15.1867 85.78 14.52C86.2867 13.8267 86.6067 13.3733 86.74 13.16C87.0333 13.1067 87.46 13.0267 88.02 12.92C88.6067 12.8133 89.0067 12.6667 89.22 12.48C89.3 12.4 89.38 12.36 89.46 12.36C89.5133 12.36 89.54 12.4133 89.54 12.52C89.5667 12.6 89.54 12.6933 89.46 12.8C89.3 12.9867 89.02 13.4267 88.62 14.12C88.2467 14.7867 87.8333 15.5333 87.38 16.36C86.9533 17.1867 86.5533 17.9333 86.18 18.6C86.5 18.1733 86.8467 17.76 87.22 17.36C87.5933 16.96 87.9533 16.5733 88.3 16.2C88.62 15.88 89.06 15.48 89.62 15C90.18 14.52 90.7667 14.08 91.38 13.68C91.9933 13.28 92.5267 13.0533 92.98 13C93.0867 12.9733 93.18 12.96 93.26 12.96C93.3667 12.96 93.4467 12.96 93.5 12.96C94.0867 12.96 94.38 13.1733 94.38 13.6C94.38 13.92 94.2067 14.3467 93.86 14.88C93.6733 15.1733 93.38 15.6667 92.98 16.36C92.6067 17.0267 92.22 17.76 91.82 18.56C91.4467 19.3333 91.1133 20.0667 90.82 20.76C90.5533 21.4267 90.42 21.92 90.42 22.24C90.42 22.6133 90.6067 22.8 90.98 22.8C91.4333 22.8 91.9267 22.5733 92.46 22.12C93.02 21.6667 93.62 21.0933 94.26 20.4C94.9 19.68 95.54 18.92 96.18 18.12C96.2333 18.1733 96.26 18.2667 96.26 18.4C96.26 18.5867 96.1933 18.7733 96.06 18.96C95.9533 19.12 95.8467 19.2667 95.74 19.4C95.4733 19.7467 95.1133 20.1867 94.66 20.72C94.2333 21.2267 93.7933 21.7333 93.34 22.24C92.8867 22.72 92.4733 23.1067 92.1 23.4C91.8333 23.5867 91.4867 23.7867 91.06 24C90.6333 24.2133 90.2067 24.32 89.78 24.32C89.3 24.32 88.9667 24.2 88.78 23.96C88.5933 23.6933 88.5 23.3733 88.5 23C88.5 22.5733 88.58 22.12 88.74 21.64C88.9 21.16 89.0733 20.7067 89.26 20.28C89.4733 19.8267 89.6333 19.4933 89.74 19.28C90.22 18.3467 90.66 17.4667 91.06 16.64C91.46 15.8133 91.74 15.2267 91.9 14.88C91.98 14.72 92.02 14.5867 92.02 14.48C92.02 14.2933 91.8733 14.28 91.58 14.44C91.2867 14.6 90.9267 14.84 90.5 15.16C90.1 15.48 89.7267 15.8 89.38 16.12C89.0333 16.4133 88.8067 16.6133 88.7 16.72C87.7133 17.76 86.8467 18.92 86.1 20.2C85.38 21.4533 84.7667 22.7467 84.26 24.08C83.9133 24.1067 83.5667 24.2 83.22 24.36C82.8733 24.52 82.6333 24.6 82.5 24.6ZM27.6203 60.16C26.5536 60.16 25.5003 59.8533 24.4603 59.24C23.4203 58.6267 22.4203 57.84 21.4603 56.88C20.5003 55.9467 19.607 54.9867 18.7803 54C17.9536 53.0133 17.2203 52.16 16.5803 51.44C15.7536 50.48 14.9803 49.6 14.2603 48.8C13.5403 47.9733 12.7936 47.3067 12.0203 46.8C11.247 46.2933 10.367 46.04 9.38031 46.04C8.55365 46.04 7.72698 46.2133 6.90031 46.56C6.10031 46.88 5.39365 47.3467 4.78031 47.96C4.16698 48.5467 3.74031 49.24 3.50031 50.04C3.42031 50.36 3.34031 50.6667 3.26031 50.96C3.18031 51.2533 3.04698 51.52 2.86031 51.76C2.67365 52.0267 2.40698 52.16 2.06031 52.16C1.79365 52.16 1.54031 52.0533 1.30031 51.84C1.03365 51.6267 0.900313 51.3467 0.900313 51C0.900313 50.68 0.993647 50.3733 1.18031 50.08C1.90031 48.9333 2.92698 47.64 4.26031 46.2C5.62031 44.7333 7.15365 43.2133 8.86031 41.64C10.567 40.0667 12.3136 38.52 14.1003 37C15.887 35.4533 17.5803 34.0267 19.1803 32.72C20.807 31.3867 22.1936 30.2533 23.3403 29.32C22.087 29.2933 20.8203 29.28 19.5403 29.28C18.287 29.2533 17.0336 29.24 15.7803 29.24C15.3803 29.24 14.8203 29.2667 14.1003 29.32C13.407 29.3733 12.7003 29.4933 11.9803 29.68C11.2603 29.8667 10.6603 30.1733 10.1803 30.6C9.70031 31.0267 9.48698 31.6 9.54031 32.32C9.56698 32.5333 9.64698 32.8267 9.78031 33.2C9.91365 33.5467 9.99365 33.76 10.0203 33.84L9.62031 34.16C9.46031 33.8667 9.26031 33.5333 9.02031 33.16C8.78031 32.76 8.56698 32.3733 8.38031 32C8.19365 31.6267 8.08698 31.3467 8.06031 31.16C8.06031 31.1067 8.04698 31.04 8.02031 30.96C8.02031 30.88 8.02031 30.8 8.02031 30.72C8.02031 30.4267 8.07365 30.1333 8.18031 29.84C8.28698 29.52 8.47365 29.24 8.74031 29C9.16698 28.6267 9.78031 28.3867 10.5803 28.28C11.407 28.1733 12.247 28.12 13.1003 28.12C13.767 28.12 14.3936 28.1333 14.9803 28.16C15.5936 28.1867 16.087 28.2 16.4603 28.2H25.7803C25.807 28.2 25.8203 28.24 25.8203 28.32C25.8203 28.4 25.7936 28.52 25.7403 28.68C25.687 28.84 25.6336 28.9467 25.5803 29C22.2203 31.4267 18.9003 34.0933 15.6203 37C12.367 39.88 9.24698 42.9333 6.26031 46.16C7.06031 45.7333 7.80698 45.4267 8.50031 45.24C9.22031 45.0533 9.90031 44.96 10.5403 44.96C11.6603 44.96 12.7003 45.24 13.6603 45.8C14.647 46.3333 15.607 47.0933 16.5403 48.08C17.5003 49.0667 18.5003 50.2 19.5403 51.48C20.607 52.7333 21.687 53.9067 22.7803 55C23.9003 56.12 24.967 57.0133 25.9803 57.68C26.9936 58.3467 27.8603 58.68 28.5803 58.68C29.4603 58.68 30.1003 58.4667 30.5003 58.04C30.9003 57.6133 31.1003 57.08 31.1003 56.44C31.1003 55.64 30.8336 54.8133 30.3003 53.96C30.1136 53.6667 29.9136 53.4 29.7003 53.16C29.5136 52.92 29.3536 52.7333 29.2203 52.6C29.1936 52.5467 29.2603 52.4533 29.4203 52.32C29.607 52.2133 29.7136 52.1733 29.7403 52.2C30.0336 52.3867 30.3136 52.5867 30.5803 52.8C30.847 53.0133 31.087 53.2667 31.3003 53.56C31.5936 53.9067 31.7936 54.28 31.9003 54.68C32.0336 55.08 32.1003 55.4667 32.1003 55.84C32.1003 56.5867 31.887 57.28 31.4603 57.92C31.0603 58.5867 30.5136 59.12 29.8203 59.52C29.1536 59.92 28.4203 60.1333 27.6203 60.16ZM31.4253 34.72C31.052 34.72 30.7853 34.6 30.6253 34.36C30.5186 34.2267 30.4653 34.0533 30.4653 33.84C30.4653 33.4133 30.6653 33.0667 31.0653 32.8C31.3586 32.64 31.6253 32.56 31.8653 32.56C32.2653 32.56 32.5453 32.68 32.7053 32.92C32.812 33.0533 32.8653 33.2267 32.8653 33.44C32.8653 33.8667 32.652 34.2133 32.2253 34.48C31.9853 34.64 31.7186 34.72 31.4253 34.72ZM24.4653 50.12C24.1986 50.12 23.972 50.0667 23.7853 49.96C23.6253 49.8533 23.5453 49.6533 23.5453 49.36C23.5453 48.9867 23.6386 48.5467 23.8253 48.04C24.0386 47.5333 24.2653 47.0267 24.5053 46.52C24.772 46.0133 24.972 45.6 25.1053 45.28C25.292 44.9067 25.5186 44.4267 25.7853 43.84C26.0786 43.2267 26.3453 42.6533 26.5853 42.12C26.852 41.56 27.0386 41.1733 27.1453 40.96C26.772 41.36 26.3186 41.8667 25.7853 42.48C25.2786 43.0667 24.7986 43.64 24.3453 44.2C23.892 44.76 23.5453 45.2 23.3053 45.52C23.2253 45.6267 23.1586 45.68 23.1053 45.68C23.052 45.68 23.0253 45.6133 23.0253 45.48C23.0253 45.2667 23.092 45.0667 23.2253 44.88C23.732 44.24 24.292 43.52 24.9053 42.72C25.5453 41.92 26.1186 41.1867 26.6253 40.52C27.132 39.8267 27.452 39.3733 27.5853 39.16C27.8786 39.1067 28.3053 39.0267 28.8653 38.92C29.452 38.8133 29.852 38.6667 30.0653 38.48C30.1453 38.4 30.2253 38.36 30.3053 38.36C30.3586 38.36 30.3853 38.4133 30.3853 38.52C30.412 38.6 30.3853 38.6933 30.3053 38.8C30.1453 38.9867 29.8653 39.44 29.4653 40.16C29.0653 40.88 28.6386 41.68 28.1853 42.56C27.7586 43.4133 27.3586 44.1867 26.9853 44.88C26.612 45.6 26.292 46.2933 26.0253 46.96C25.7586 47.6267 25.6253 48.1067 25.6253 48.4C25.6253 48.7733 25.812 48.96 26.1853 48.96C26.532 48.96 26.972 48.7467 27.5053 48.32C28.0653 47.8933 28.6253 47.3867 29.1853 46.8C29.7453 46.1867 30.2386 45.6267 30.6653 45.12C30.7986 44.96 30.9586 44.7733 31.1453 44.56C31.3586 44.32 31.492 44.1733 31.5453 44.12C31.5986 44.1733 31.6253 44.2667 31.6253 44.4C31.5986 44.5867 31.532 44.7733 31.4253 44.96C31.3186 45.12 31.212 45.2667 31.1053 45.4C30.5453 46.0933 29.932 46.8133 29.2653 47.56C28.5986 48.28 27.8653 48.8933 27.0653 49.4C26.2653 49.88 25.3986 50.12 24.4653 50.12ZM33.0406 50.08C32.614 50.08 32.2273 50 31.8806 49.84C31.5606 49.6533 31.4006 49.2667 31.4006 48.68C31.4006 47.7467 31.6406 46.8133 32.1206 45.88C32.6006 44.92 33.094 44.08 33.6006 43.36C34.054 42.7467 34.5606 42.1733 35.1206 41.64C35.7073 41.08 36.334 40.6 37.0006 40.2C37.4273 39.9333 38.0006 39.6533 38.7206 39.36C39.4673 39.04 40.094 38.88 40.6006 38.88C41.0273 38.88 41.4006 39 41.7206 39.24C42.0406 39.4533 42.2006 39.8533 42.2006 40.44C42.2006 41.3467 41.9606 42.28 41.4806 43.24C41.0273 44.1733 40.5473 45 40.0406 45.72C39.8006 46.04 39.5606 46.3467 39.3206 46.64C39.0806 46.9067 38.814 47.1867 38.5206 47.48C39.5073 47.48 40.414 47.2 41.2406 46.64C42.0673 46.0533 42.7873 45.3467 43.4006 44.52L43.4806 44.44C43.5606 44.44 43.6006 44.52 43.6006 44.68C43.6006 44.8667 43.5473 45.04 43.4406 45.2C42.9073 45.9467 42.2406 46.6133 41.4406 47.2C40.6406 47.76 39.734 48.04 38.7206 48.04C38.614 48.04 38.5073 48.04 38.4006 48.04C38.294 48.04 38.1873 48.0267 38.0806 48C36.5873 49.3867 34.9073 50.08 33.0406 50.08ZM34.0806 49.4C34.454 49.4 34.854 49.2667 35.2806 49C35.734 48.7333 36.0806 48.48 36.3206 48.24C36.774 47.7867 37.1873 47.3067 37.5606 46.8C37.934 46.2667 38.2806 45.7333 38.6006 45.2C38.974 44.56 39.3473 43.8 39.7206 42.92C40.094 42.04 40.2806 41.2133 40.2806 40.44C40.2806 39.8267 40.0673 39.52 39.6406 39.52C39.294 39.52 38.8673 39.6667 38.3606 39.96C37.8806 40.2533 37.5206 40.52 37.2806 40.76C36.374 41.6933 35.614 42.7067 35.0006 43.8C34.654 44.4133 34.2806 45.1333 33.8806 45.96C33.4806 46.7867 33.2806 47.5467 33.2806 48.24C33.2806 48.3467 33.2806 48.4533 33.2806 48.56C33.3073 48.64 33.334 48.7333 33.3606 48.84C33.4673 49.2133 33.7073 49.4 34.0806 49.4ZM46.8266 50.12C46.5599 50.12 46.3332 50.0667 46.1466 49.96C45.9599 49.8533 45.8666 49.6533 45.8666 49.36C45.8666 48.9867 45.9599 48.5467 46.1466 48.04C46.3599 47.5333 46.5866 47.0267 46.8266 46.52C47.0666 46.0133 47.2666 45.6 47.4266 45.28C47.7466 44.6667 48.0532 44.0533 48.3466 43.44C48.6399 42.8267 48.8932 42.3067 49.1066 41.88C49.3199 41.48 49.4266 41.2133 49.4266 41.08C49.4266 40.8667 49.2666 40.8667 48.9466 41.08C48.6532 41.2933 48.3732 41.5067 48.1066 41.72C47.5199 42.28 46.9066 42.9467 46.2666 43.72C45.6266 44.4667 45.1332 45.0667 44.7866 45.52C44.7066 45.6267 44.6399 45.68 44.5866 45.68C44.5332 45.68 44.5066 45.6133 44.5066 45.48C44.5066 45.2667 44.5732 45.0667 44.7066 44.88C45.0799 44.3467 45.5199 43.76 46.0266 43.12C46.5332 42.48 47.0532 41.8667 47.5866 41.28C48.0932 40.7467 48.6132 40.2267 49.1466 39.72C49.6799 39.2133 50.3599 38.96 51.1866 38.96C51.7466 38.96 52.0266 39.1733 52.0266 39.6C52.0266 39.9733 51.8666 40.4 51.5466 40.88C51.3599 41.1733 51.0666 41.6667 50.6666 42.36C50.2666 43.0533 49.8532 43.8133 49.4266 44.64C49.0266 45.44 48.6799 46.1867 48.3866 46.88C48.0932 47.5733 47.9466 48.08 47.9466 48.4C47.9466 48.7733 48.1332 48.96 48.5066 48.96C48.7999 48.96 49.1599 48.8133 49.5866 48.52C50.0132 48.2 50.4532 47.8267 50.9066 47.4C51.7332 46.6 52.4799 45.7333 53.1466 44.8C53.8399 43.84 54.4266 42.92 54.9066 42.04C55.4132 41.16 55.8132 40.44 56.1066 39.88C56.1599 39.7733 56.2132 39.6533 56.2666 39.52C56.3466 39.36 56.4666 39.2667 56.6266 39.24C56.7866 39.2133 57.1332 39.2 57.6666 39.2C58.1999 39.2 58.6932 39.0933 59.1466 38.88H59.2266C59.3066 38.88 59.3466 38.92 59.3466 39C59.3466 39.2133 59.1732 39.3733 58.8266 39.48C58.5066 39.5867 58.1332 39.9067 57.7066 40.44C57.3066 40.9733 56.9066 41.6267 56.5066 42.4C56.1066 43.1467 55.7466 43.92 55.4266 44.72C55.1066 45.52 54.8666 46.2533 54.7066 46.92C54.5466 47.5867 54.5066 48.08 54.5866 48.4C54.6932 48.7733 54.8799 48.96 55.1466 48.96C55.4932 48.96 55.9732 48.7467 56.5866 48.32C57.2266 47.8933 57.8799 47.3867 58.5466 46.8C59.2132 46.1867 59.7599 45.6267 60.1866 45.12C60.3732 44.9067 60.5466 44.6933 60.7066 44.48C60.8666 44.2667 60.9732 44.1333 61.0266 44.08C61.0532 44.1067 61.0799 44.16 61.1066 44.24C61.1332 44.2933 61.1466 44.3467 61.1466 44.4C61.1199 44.5867 61.0532 44.7733 60.9466 44.96C60.8399 45.12 60.7199 45.2667 60.5866 45.4C60.0799 46.0667 59.4666 46.7733 58.7466 47.52C58.0532 48.24 57.2932 48.8533 56.4666 49.36C55.6666 49.8667 54.8399 50.12 53.9866 50.12C53.7199 50.12 53.4132 50.0533 53.0666 49.92C52.7466 49.7867 52.5866 49.4933 52.5866 49.04C52.5866 48.6933 52.6799 48.2267 52.8666 47.64C53.0532 47.0267 53.2532 46.4267 53.4666 45.84C53.7066 45.2267 53.9066 44.7733 54.0666 44.48C53.7199 44.9867 53.2932 45.56 52.7866 46.2C52.3066 46.8133 51.8132 47.36 51.3066 47.84C50.6399 48.48 49.9199 49.0267 49.1466 49.48C48.3999 49.9067 47.6266 50.12 46.8266 50.12ZM63.5697 50.32C62.583 50.32 61.8897 50.1333 61.4897 49.76C61.0897 49.3867 60.8897 48.9067 60.8897 48.32C60.8897 47.5467 61.143 46.6933 61.6497 45.76C62.1564 44.8 62.6364 44 63.0897 43.36C63.543 42.7467 64.0497 42.1733 64.6097 41.64C65.1964 41.08 65.823 40.6 66.4897 40.2C66.9164 39.9333 67.4897 39.6533 68.2097 39.36C68.9564 39.04 69.583 38.88 70.0897 38.88C70.703 38.88 71.1297 39.0267 71.3697 39.32C71.6097 39.5867 71.7297 39.92 71.7297 40.32C71.7297 40.64 71.6764 40.9733 71.5697 41.32C71.463 41.64 71.343 41.9467 71.2097 42.24C71.1297 42.4 71.0097 42.52 70.8497 42.6C70.6897 42.6533 70.6097 42.6267 70.6097 42.52C70.6097 42.3867 70.623 42.2667 70.6497 42.16C70.6764 42.0533 70.6897 41.9333 70.6897 41.8C70.6897 41.2933 70.5697 40.8 70.3297 40.32C70.1164 39.8133 69.783 39.56 69.3297 39.56C68.8497 39.56 68.3297 39.7333 67.7697 40.08C67.2097 40.4 66.823 40.68 66.6097 40.92C65.9164 41.64 65.2364 42.5333 64.5697 43.6C63.9297 44.6667 63.463 45.68 63.1697 46.64C62.983 47.2 62.8897 47.68 62.8897 48.08C62.8897 48.5333 63.0097 48.8533 63.2497 49.04C63.4897 49.2267 63.783 49.32 64.1297 49.32C64.3964 49.32 64.6764 49.28 64.9697 49.2C65.2897 49.12 65.623 49.0267 65.9697 48.92C66.7697 48.6533 67.5697 48.24 68.3697 47.68C69.1964 47.0933 69.943 46.48 70.6097 45.84C71.2764 45.1733 71.783 44.6 72.1297 44.12C72.183 44.1733 72.2097 44.2533 72.2097 44.36C72.2097 44.4933 72.1564 44.6533 72.0497 44.84C71.943 45 71.863 45.1333 71.8097 45.24C71.2497 45.9867 70.5164 46.76 69.6097 47.56C68.703 48.3333 67.7164 48.9867 66.6497 49.52C65.6097 50.0533 64.583 50.32 63.5697 50.32ZM78.9409 50.24C78.5409 50.24 78.1809 50.16 77.8609 50C77.5676 49.84 77.4209 49.5467 77.4209 49.12C77.4209 48.88 77.4743 48.6133 77.5809 48.32C77.8209 47.7067 78.1409 46.96 78.5409 46.08C78.9676 45.2 79.3943 44.3467 79.8209 43.52C80.2476 42.6667 80.5809 41.9733 80.8209 41.44C80.9809 41.12 81.0609 40.8933 81.0609 40.76C81.0609 40.52 80.9276 40.4667 80.6609 40.6C80.3943 40.7333 80.1009 40.92 79.7809 41.16C79.4609 41.4 79.2209 41.5867 79.0609 41.72C78.3676 42.36 77.6343 43.12 76.8609 44C76.1143 44.8533 75.4209 45.76 74.7809 46.72C74.1676 47.6533 73.6876 48.5867 73.3409 49.52C73.3143 49.68 73.1409 49.8133 72.8209 49.92C72.5009 50.0267 72.2076 50.08 71.9409 50.08C71.5143 50.08 71.3543 49.9467 71.4609 49.68C72.0743 48.2933 72.7009 46.76 73.3409 45.08C74.0076 43.4 74.7543 41.68 75.5809 39.92C76.1943 38.5867 76.8743 37.2133 77.6209 35.8C78.3943 34.3867 79.2476 33.04 80.1809 31.76C81.1143 30.4533 82.1409 29.3067 83.2609 28.32C84.2476 27.4667 85.3276 26.7733 86.5009 26.24C87.7009 25.68 88.9943 25.4 90.3809 25.4C90.9943 25.4 91.5276 25.5333 91.9809 25.8C92.4343 26.04 92.6876 26.48 92.7409 27.12V27.48C92.7409 27.8533 92.7009 28.2267 92.6209 28.6C92.5943 28.7067 92.4876 28.76 92.3009 28.76C92.2209 28.76 92.1943 28.7467 92.2209 28.72C92.3276 28.0267 92.1409 27.5333 91.6609 27.24C91.2076 26.9467 90.6209 26.8 89.9009 26.8C88.5943 26.8 87.3943 27.04 86.3009 27.52C85.2076 28 84.1943 28.64 83.2609 29.44C81.8209 30.6933 80.5676 32.2933 79.5009 34.24C78.4343 36.1867 77.5143 38.1733 76.7409 40.2C76.3676 41.1867 75.9943 42.1733 75.6209 43.16C75.2743 44.1467 74.9409 45.0667 74.6209 45.92C75.8209 44.32 76.9676 42.9467 78.0609 41.8C79.1809 40.6533 80.1543 39.84 80.9809 39.36C81.6476 38.9867 82.2476 38.8 82.7809 38.8C83.2876 38.8 83.5409 39.0133 83.5409 39.44C83.5409 39.8133 83.3543 40.2933 82.9809 40.88C82.7943 41.1733 82.5009 41.6667 82.1009 42.36C81.7276 43.0533 81.3276 43.8133 80.9009 44.64C80.5009 45.44 80.1543 46.1867 79.8609 46.88C79.5676 47.5733 79.4209 48.08 79.4209 48.4C79.4209 48.8267 79.6076 49.04 79.9809 49.04C80.1943 49.04 80.4343 48.9733 80.7009 48.84C80.9943 48.7067 81.2076 48.5867 81.3409 48.48C82.0609 47.9467 82.7676 47.2933 83.4609 46.52C84.1543 45.7467 84.7409 45.0667 85.2209 44.48C85.2476 44.4533 85.2609 44.4933 85.2609 44.6C85.2609 44.7067 85.2343 44.8667 85.1809 45.08C85.1543 45.2667 85.0743 45.4267 84.9409 45.56C84.6476 45.96 84.3409 46.3467 84.0209 46.72C83.7276 47.0667 83.4343 47.4133 83.1409 47.76C82.6343 48.3467 82.0209 48.9067 81.3009 49.44C80.6076 49.9733 79.8209 50.24 78.9409 50.24ZM88.6588 50.32C87.5654 50.32 86.8054 50.1067 86.3788 49.68C85.9521 49.2533 85.7388 48.7333 85.7388 48.12C85.7388 47.3467 85.9388 46.52 86.3388 45.64C86.7654 44.76 87.1654 44.0133 87.5388 43.4C87.9654 42.76 88.5388 42.0933 89.2588 41.4C89.9788 40.7067 90.7654 40.12 91.6188 39.64C92.4721 39.16 93.2988 38.92 94.0988 38.92C94.7921 38.92 95.2721 39.0933 95.5388 39.44C95.8054 39.76 95.9388 40.1467 95.9388 40.6C95.9388 41.4267 95.6854 42.1067 95.1788 42.64C94.6988 43.1733 94.0988 43.6133 93.3788 43.96C92.6588 44.28 91.9654 44.5467 91.2988 44.76C90.8988 44.8667 90.4321 44.9733 89.8988 45.08C89.3654 45.1867 88.8588 45.24 88.3788 45.24C88.1921 45.72 88.0454 46.1867 87.9388 46.64C87.8321 47.0933 87.7788 47.5067 87.7788 47.88C87.7788 48.3333 87.8854 48.7067 88.0988 49C88.3388 49.2933 88.7254 49.44 89.2588 49.44C89.4721 49.44 89.7254 49.4133 90.0188 49.36C90.3121 49.3067 90.6321 49.2267 90.9788 49.12C91.7788 48.8533 92.5654 48.4267 93.3388 47.84C94.1121 47.2533 94.8188 46.6267 95.4588 45.96C96.1254 45.2667 96.6321 44.6933 96.9788 44.24C97.0588 44.32 97.0988 44.4133 97.0988 44.52C97.0988 44.6533 97.0054 44.8667 96.8188 45.16C96.2854 45.9067 95.5921 46.68 94.7388 47.48C93.8854 48.28 92.9388 48.96 91.8988 49.52C90.8588 50.0533 89.7788 50.32 88.6588 50.32ZM88.6988 44.44C89.0454 44.4667 89.4321 44.4667 89.8588 44.44C90.3121 44.3867 90.7521 44.2933 91.1788 44.16C92.2721 43.84 93.0588 43.3333 93.5388 42.64C94.0454 41.92 94.2988 41.28 94.2988 40.72C94.2988 40.4 94.2321 40.1333 94.0988 39.92C93.9654 39.7067 93.7521 39.6 93.4588 39.6C92.6854 39.6 91.9921 39.8933 91.3788 40.48C90.7654 41.04 90.2321 41.6933 89.7788 42.44C89.3254 43.1867 88.9654 43.8533 88.6988 44.44Z" fill="white"/>
</svg>
